<svg data-v-423bf9ae="" xmlns="http://www.w3.org/2000/svg" viewBox="0 0 448 90" class="iconLeft"><!----><!----><!----><g data-v-423bf9ae="" id="5441ec2b-8771-46c5-92a9-2579f40178d9" fill="white" transform="matrix(6.166495665241285,0,0,6.166495665241285,115.82971924280548,-11.269272945326719)"><path d="M4.03 6.58C3.70 6.58 0.56 7.06 0.56 10.35C0.56 12.29 1.58 13.99 3.79 13.99C4.33 13.99 4.87 13.76 4.93 13.72L6.29 12.80C6.29 12.59 6.16 12.52 6.16 12.52C5.31 12.88 4.83 13.05 4.10 13.05C2.41 13.05 1.72 11.40 1.72 9.79C1.72 8.57 2.52 7.14 3.49 7.14C4.37 7.14 4.91 7.62 5.43 8.23C6.12 8.06 6.27 7.39 6.27 7.39C5.75 6.92 5.04 6.58 4.03 6.58ZM8.81 6.58C8.67 6.58 8.25 6.89 7.01 7.06C7.01 7.06 6.99 7.14 6.99 7.22C6.99 7.31 7 7.38 7.06 7.43C7.22 7.43 7.46 7.42 7.60 7.42C8.30 7.43 8.30 8.29 8.30 9.21C8.30 10.29 8.30 11.82 8.22 12.43C8.16 12.87 8.08 13.27 7.06 13.47C7.06 13.47 7.04 13.52 7.04 13.58C7.04 13.65 7.06 13.75 7.11 13.82C7.88 13.72 8.74 13.71 9.14 13.71C9.45 13.71 10.09 13.75 10.71 13.75C10.75 13.66 10.75 13.59 10.75 13.54C10.75 13.41 10.71 13.31 10.71 13.31C10.26 13.31 9.90 13.31 9.58 13.27C9.41 13.26 9.39 12.29 9.39 12.10C9.39 11.79 9.39 9.77 9.48 8.71C9.93 8.22 10.63 7.55 10.88 7.55C11.24 7.55 11.47 7.84 11.59 8.29C12.43 8.29 12.59 8.01 12.59 7.73C12.59 7.08 12.05 6.58 11.30 6.58C10.60 7.04 10.21 7.39 9.39 8.23C9.34 7.50 9.00 6.58 8.81 6.58ZM19.99 10.29C19.99 8.22 18.45 6.58 16.49 6.58C14.39 6.92 12.87 7.98 12.87 10.29C12.87 12.40 14.42 13.99 16.38 13.99C18.47 13.65 19.99 12.60 19.99 10.29ZM16.69 13.38C15.06 13.38 14.15 11.56 14.15 9.74C14.15 8.33 14.70 7.17 16.21 7.17C17.84 7.17 18.70 9.00 18.70 10.81C18.70 12.26 18.20 13.38 16.69 13.38ZM25.02 7.45C25.06 7.60 25.21 8.37 25.24 8.54C25.30 8.55 25.37 8.57 25.44 8.57C25.54 8.57 25.61 8.55 25.66 8.51C25.72 7.94 25.82 7.17 25.89 6.94C25.55 6.80 24.64 6.58 23.97 6.58C22.89 6.58 21.50 7.08 21.50 8.54C21.50 9.52 22.25 10.11 22.86 10.40L23.91 10.91C24.04 10.98 25.07 11.35 25.07 12.26C25.07 13.10 24.42 13.44 23.69 13.44C22.95 13.44 22.40 13.05 22.27 12.92C22.02 12.63 21.90 12.12 21.78 11.84C21.74 11.82 21.69 11.82 21.66 11.82C21.55 11.82 21.46 11.86 21.38 11.91C21.49 12.52 21.60 13.26 21.63 13.66C21.94 13.80 22.83 13.99 23.62 13.99C24.92 13.99 26.17 13.24 26.17 11.91C26.17 10.68 24.98 10.05 24.57 9.86L23.48 9.34C23.02 9.11 22.58 8.68 22.58 8.18C22.58 7.45 23.11 7.08 23.80 7.08C24.51 7.08 24.92 7.36 25.02 7.45ZM31.50 7.45C31.54 7.60 31.70 8.37 31.72 8.54C31.78 8.55 31.85 8.57 31.92 8.57C32.02 8.57 32.09 8.55 32.14 8.51C32.20 7.94 32.30 7.17 32.37 6.94C32.03 6.80 31.12 6.58 30.45 6.58C29.37 6.58 27.99 7.08 27.99 8.54C27.99 9.52 28.73 10.11 29.34 10.40L30.39 10.91C30.52 10.98 31.56 11.35 31.56 12.26C31.56 13.10 30.90 13.44 30.17 13.44C29.43 13.44 28.88 13.05 28.76 12.92C28.50 12.63 28.38 12.12 28.27 11.84C28.22 11.82 28.17 11.82 28.14 11.82C28.03 11.82 27.94 11.86 27.86 11.91C27.97 12.52 28.08 13.26 28.11 13.66C28.42 13.80 29.32 13.99 30.10 13.99C31.40 13.99 32.65 13.24 32.65 11.91C32.65 10.68 31.46 10.05 31.05 9.86L29.96 9.34C29.50 9.11 29.06 8.68 29.06 8.18C29.06 7.45 29.60 7.08 30.28 7.08C31.00 7.08 31.40 7.36 31.50 7.45ZM37.55 6.58C37.21 6.58 34.08 7.06 34.08 10.35C34.08 12.29 35.10 13.99 37.31 13.99C37.84 13.99 38.39 13.76 38.44 13.72L39.80 12.80C39.80 12.59 39.68 12.52 39.68 12.52C38.82 12.88 38.35 13.05 37.62 13.05C35.92 13.05 35.24 11.40 35.24 9.79C35.24 8.57 36.04 7.14 37.00 7.14C37.88 7.14 38.43 7.62 38.95 8.23C39.63 8.06 39.79 7.39 39.79 7.39C39.27 6.92 38.56 6.58 37.55 6.58ZM47.11 9.79C47.11 8.76 47.14 7.39 47.24 6.65C47.24 6.65 47.18 6.52 47.03 6.48C46.58 6.59 46.45 6.61 46.06 6.69C45.46 6.80 45.26 6.80 44.83 6.87C44.83 6.87 44.79 6.93 44.79 7.04C44.79 7.10 44.81 7.15 44.83 7.22C44.83 7.22 45.11 7.25 45.29 7.28C45.99 7.42 45.99 7.99 45.99 9.10L45.99 10.79C45.99 11.20 45.96 11.82 45.95 12.12C45.44 12.50 44.79 12.99 43.83 12.99C42.60 12.99 42.60 11.28 42.60 10.70C42.60 9.74 42.60 7.42 42.71 6.65C42.71 6.65 42.66 6.52 42.52 6.48C42.52 6.48 41.99 6.61 41.52 6.69C41.01 6.78 40.81 6.80 40.45 6.87C40.45 6.87 40.40 6.93 40.40 7.04C40.40 7.10 40.40 7.14 40.45 7.22C40.45 7.22 40.73 7.25 40.91 7.28C41.48 7.39 41.48 7.64 41.48 8.83L41.48 11.51C41.48 12.96 42.01 13.99 43.26 13.99C44.28 13.64 45.12 13.26 45.99 12.71C46.02 13.22 46.33 13.83 46.75 13.99C46.84 13.93 47.25 13.59 48.30 13.41C48.30 13.41 48.31 13.36 48.31 13.26C48.31 13.20 48.31 13.13 48.26 13.03C48.09 13.03 47.89 13.05 47.75 13.05C47.19 13.05 47.12 12.32 47.12 11.79C47.12 11.79 47.11 10.22 47.11 9.79ZM53.26 7.39C53.28 7.21 53.30 7.04 53.40 6.87C53.40 6.76 53.30 6.71 53.30 6.71C52.30 6.80 51.86 6.80 51.28 6.80C51.28 5.81 51.41 4.34 51.41 4.34C51.32 4.26 51.24 4.26 51.16 4.26C50.61 4.91 50.09 5.12 50.09 5.12C50.09 5.12 50.11 5.91 50.11 6.31C50.11 6.47 50.11 6.80 49.99 6.80L49 6.80C48.97 6.99 48.97 7.11 48.87 7.31C48.87 7.42 48.97 7.45 48.97 7.45C48.97 7.45 49.43 7.43 50.01 7.43C50.11 7.43 50.11 7.73 50.11 8.26L50.11 11.51C50.11 12.98 50.55 13.99 51.45 13.99C52.56 13.64 52.96 13.47 53.80 13.02C53.80 12.80 53.68 12.66 53.59 12.63C52.99 12.88 52.67 13.02 52.07 13.02C51.27 13.02 51.27 11.37 51.27 10.70L51.27 7.42Z"></path></g><!----><g data-v-423bf9ae="" id="bcb0f44c-c4ec-4a56-b3a3-3244d29e3c21" transform="matrix(3.1025924503236535,0,0,3.1025924503236535,0.3585207948215441,-8.290956827928717)" stroke="none" fill="white"><path d="M16 26.219l7.496-12.954H8.504zM7.496 19.046L0 32h14.992zM17.008 32H32l-7.496-12.954zM3.587 2.992L0 9.191h7.174zM8.275 9.191h7.174l-3.587-6.199zM20.138 2.992l-3.587 6.199h7.174zM24.826 9.191H32l-3.587-6.199z"></path></g><!----></svg>